<?xml version="1.0" encoding="iso-8859-1"?>
<!-- Uploaded to: SVG Repo, www.svgrepo.com, Generator: SVG Repo Mixer Tools -->
<svg fill="#000000" height="800px" width="800px" version="1.1" id="Layer_1" xmlns="http://www.w3.org/2000/svg" xmlns:xlink="http://www.w3.org/1999/xlink" 
	 viewBox="0 0 512 512" xml:space="preserve">
<g>
	<g>
		<path d="M436.728,302.99c-21.955-1.71-40.82-15.387-49.231-35.694c-9.788-23.631-3.181-50.502,16.443-66.864l13.421-11.192
			l-12.936-11.748c-23.865-21.672-54.117-33.607-85.182-33.607c-16.445,0-32.625,3.334-47.824,9.758v-22.353h26.869
			c31.587,0,57.286-25.698,57.286-57.286V16.719h-57.286c-9.705,0-18.85,2.434-26.869,6.711V0h-30.417v74.003v57.286V153.8
			c-15.312-6.531-31.628-9.915-48.211-9.915c-73.6,0-133.477,65.549-133.477,146.121c0,42.374,14.047,96.386,35.787,137.601
			c13.076,24.79,28.448,44.566,45.69,58.777C161.41,503.382,184.162,512,208.412,512c18.714,0,31.767-3.323,47.605-12.697
			C271.855,508.677,284.908,512,303.622,512c40.14,0,76.188-23.724,104.248-68.609c21.164-33.854,37.15-79.942,42.763-123.284
			l2.055-15.874L436.728,302.99z M271.417,74.003c0-14.815,12.053-26.869,26.869-26.869h26.869v26.869
			c0,14.815-12.053,26.869-26.869,26.869h-26.869V74.003z M382.076,427.266c-15.492,24.778-41.677,54.316-78.456,54.316
			c-14.786,0-22.911-1.949-39.076-12.898l-8.529-5.777l-8.53,5.777c-16.164,10.949-24.29,12.898-39.075,12.898
			c-23.017,0-56.691-11.826-86.408-68.165c-19.605-37.169-32.274-85.611-32.274-123.411c0-63.8,46.232-115.704,103.06-115.704
			c19.224,0,38.063,6.101,54.48,17.641l8.746,6.148l8.746-6.148c16.417-11.541,35.256-17.641,54.48-17.641
			c18.728,0,36.564,5.49,52.333,16.007c-7.599,9.649-13.108,20.815-16.203,32.986c-4.734,18.613-3.343,37.854,4.025,55.641
			c10.696,25.822,32.472,44.606,58.818,51.627C411.834,365.337,398.734,400.62,382.076,427.266z"/>
	</g>
</g>
<g>
	<g>
		<path d="M110.007,290.006h30.417c0-35.846,23.49-65.009,52.364-65.009V194.58C147.142,194.58,110.007,237.388,110.007,290.006z"/>
	</g>
</g>
</svg>